<mxfile host="Electron" modified="2024-07-10T20:50:00.673Z" agent="Mozilla/5.0 (Windows NT 10.0; Win64; x64) AppleWebKit/537.36 (KHTML, like Gecko) draw.io/22.0.3 Chrome/114.0.5735.289 Electron/25.8.4 Safari/537.36" etag="XlXq8T5Gk0xZkTiVzaow" version="22.0.3" type="device">
  <diagram id="R2lEEEUBdFMjLlhIrx00" name="1:1">
    <mxGraphModel dx="1173" dy="602" grid="0" gridSize="10" guides="1" tooltips="1" connect="1" arrows="1" fold="1" page="1" pageScale="1" pageWidth="850" pageHeight="1100" math="0" shadow="0" extFonts="Permanent Marker^https://fonts.googleapis.com/css?family=Permanent+Marker">
      <root>
        <mxCell id="0" />
        <mxCell id="1" parent="0" />
        <mxCell id="6Qk-c6x9b5MRVzB00tFX-41" value="15" style="text;html=1;strokeColor=none;fillColor=none;align=center;verticalAlign=middle;whiteSpace=wrap;rounded=0;fontColor=#00CC00;fontStyle=3" parent="1" vertex="1">
          <mxGeometry x="469" y="262" width="20" height="30" as="geometry" />
        </mxCell>
        <mxCell id="6Qk-c6x9b5MRVzB00tFX-44" value="9:&amp;nbsp;Required # Routes" style="text;html=1;strokeColor=none;fillColor=none;align=left;verticalAlign=middle;whiteSpace=wrap;rounded=0;fontColor=#00CC00;fontStyle=3" parent="1" vertex="1">
          <mxGeometry x="618" y="121" width="125" height="25" as="geometry" />
        </mxCell>
        <mxCell id="6Qk-c6x9b5MRVzB00tFX-45" value="&lt;div style=&quot;text-align: center;&quot;&gt;&lt;span style=&quot;background-color: initial;&quot;&gt;&lt;font color=&quot;#3333ff&quot;&gt;&lt;b&gt;9: Plane&amp;nbsp;&lt;/b&gt;&lt;/font&gt;&lt;/span&gt;&lt;b style=&quot;color: rgb(51, 51, 255); background-color: initial;&quot;&gt;Number Available&lt;/b&gt;&lt;/div&gt;" style="text;whiteSpace=wrap;html=1;" parent="1" vertex="1">
          <mxGeometry x="618" y="152" width="159" height="25" as="geometry" />
        </mxCell>
        <mxCell id="kV7nIaN6UhCzzZfUUubw-22" style="rounded=0;orthogonalLoop=1;jettySize=auto;html=1;entryX=0.5;entryY=0;entryDx=0;entryDy=0;exitX=0.5;exitY=1;exitDx=0;exitDy=0;" edge="1" parent="1" source="kV7nIaN6UhCzzZfUUubw-2" target="kV7nIaN6UhCzzZfUUubw-10">
          <mxGeometry relative="1" as="geometry">
            <mxPoint x="294" y="97" as="sourcePoint" />
          </mxGeometry>
        </mxCell>
        <mxCell id="kV7nIaN6UhCzzZfUUubw-23" style="rounded=0;orthogonalLoop=1;jettySize=auto;html=1;exitX=0.5;exitY=1;exitDx=0;exitDy=0;entryX=0.5;entryY=0;entryDx=0;entryDy=0;" edge="1" parent="1" source="kV7nIaN6UhCzzZfUUubw-2" target="kV7nIaN6UhCzzZfUUubw-9">
          <mxGeometry relative="1" as="geometry" />
        </mxCell>
        <mxCell id="kV7nIaN6UhCzzZfUUubw-24" style="rounded=0;orthogonalLoop=1;jettySize=auto;html=1;exitX=0.5;exitY=1;exitDx=0;exitDy=0;entryX=0.5;entryY=0;entryDx=0;entryDy=0;" edge="1" parent="1" source="kV7nIaN6UhCzzZfUUubw-2" target="kV7nIaN6UhCzzZfUUubw-11">
          <mxGeometry relative="1" as="geometry" />
        </mxCell>
        <mxCell id="kV7nIaN6UhCzzZfUUubw-25" style="rounded=0;orthogonalLoop=1;jettySize=auto;html=1;exitX=0.5;exitY=1;exitDx=0;exitDy=0;entryX=0.5;entryY=0;entryDx=0;entryDy=0;" edge="1" parent="1" source="kV7nIaN6UhCzzZfUUubw-2" target="kV7nIaN6UhCzzZfUUubw-3">
          <mxGeometry relative="1" as="geometry" />
        </mxCell>
        <mxCell id="kV7nIaN6UhCzzZfUUubw-2" value="&lt;font style=&quot;font-size: 21px;&quot;&gt;S&lt;/font&gt;" style="ellipse;whiteSpace=wrap;html=1;aspect=fixed;" vertex="1" parent="1">
          <mxGeometry x="253" y="23" width="65" height="65" as="geometry" />
        </mxCell>
        <mxCell id="kV7nIaN6UhCzzZfUUubw-26" style="rounded=0;orthogonalLoop=1;jettySize=auto;html=1;exitX=1;exitY=0.5;exitDx=0;exitDy=0;entryX=0;entryY=0.5;entryDx=0;entryDy=0;" edge="1" parent="1" source="kV7nIaN6UhCzzZfUUubw-3" target="kV7nIaN6UhCzzZfUUubw-7">
          <mxGeometry relative="1" as="geometry" />
        </mxCell>
        <mxCell id="kV7nIaN6UhCzzZfUUubw-27" style="rounded=0;orthogonalLoop=1;jettySize=auto;html=1;exitX=1;exitY=0.5;exitDx=0;exitDy=0;entryX=0;entryY=0.5;entryDx=0;entryDy=0;" edge="1" parent="1" source="kV7nIaN6UhCzzZfUUubw-3" target="kV7nIaN6UhCzzZfUUubw-6">
          <mxGeometry relative="1" as="geometry" />
        </mxCell>
        <mxCell id="kV7nIaN6UhCzzZfUUubw-28" style="rounded=0;orthogonalLoop=1;jettySize=auto;html=1;exitX=1;exitY=0.5;exitDx=0;exitDy=0;entryX=0;entryY=0.5;entryDx=0;entryDy=0;" edge="1" parent="1" source="kV7nIaN6UhCzzZfUUubw-3" target="kV7nIaN6UhCzzZfUUubw-8">
          <mxGeometry relative="1" as="geometry" />
        </mxCell>
        <mxCell id="kV7nIaN6UhCzzZfUUubw-29" style="rounded=0;orthogonalLoop=1;jettySize=auto;html=1;exitX=1;exitY=0.5;exitDx=0;exitDy=0;" edge="1" parent="1" source="kV7nIaN6UhCzzZfUUubw-3" target="kV7nIaN6UhCzzZfUUubw-5">
          <mxGeometry relative="1" as="geometry" />
        </mxCell>
        <mxCell id="kV7nIaN6UhCzzZfUUubw-3" value="&lt;font style=&quot;font-size: 20px;&quot;&gt;A&lt;/font&gt;" style="ellipse;whiteSpace=wrap;html=1;aspect=fixed;" vertex="1" parent="1">
          <mxGeometry x="134" y="147" width="65" height="65" as="geometry" />
        </mxCell>
        <mxCell id="kV7nIaN6UhCzzZfUUubw-62" style="edgeStyle=orthogonalEdgeStyle;rounded=0;orthogonalLoop=1;jettySize=auto;html=1;exitX=0.5;exitY=0;exitDx=0;exitDy=0;entryX=1;entryY=0.5;entryDx=0;entryDy=0;curved=1;dashed=1;strokeColor=#FF0000;" edge="1" parent="1" source="kV7nIaN6UhCzzZfUUubw-4" target="kV7nIaN6UhCzzZfUUubw-2">
          <mxGeometry relative="1" as="geometry" />
        </mxCell>
        <mxCell id="kV7nIaN6UhCzzZfUUubw-4" value="&lt;font style=&quot;font-size: 21px;&quot;&gt;T&lt;/font&gt;" style="ellipse;whiteSpace=wrap;html=1;aspect=fixed;" vertex="1" parent="1">
          <mxGeometry x="576" y="308" width="65" height="65" as="geometry" />
        </mxCell>
        <mxCell id="kV7nIaN6UhCzzZfUUubw-37" style="rounded=0;orthogonalLoop=1;jettySize=auto;html=1;exitX=1;exitY=1;exitDx=0;exitDy=0;entryX=0;entryY=0.5;entryDx=0;entryDy=0;jumpStyle=arc;" edge="1" parent="1" source="kV7nIaN6UhCzzZfUUubw-5" target="kV7nIaN6UhCzzZfUUubw-4">
          <mxGeometry relative="1" as="geometry" />
        </mxCell>
        <mxCell id="kV7nIaN6UhCzzZfUUubw-5" value="&lt;font style=&quot;font-size: 20px;&quot;&gt;R4&lt;/font&gt;" style="ellipse;whiteSpace=wrap;html=1;aspect=fixed;" vertex="1" parent="1">
          <mxGeometry x="253" y="147" width="65" height="65" as="geometry" />
        </mxCell>
        <mxCell id="kV7nIaN6UhCzzZfUUubw-40" style="rounded=0;orthogonalLoop=1;jettySize=auto;html=1;exitX=1;exitY=1;exitDx=0;exitDy=0;entryX=0;entryY=0.5;entryDx=0;entryDy=0;" edge="1" parent="1" source="kV7nIaN6UhCzzZfUUubw-6" target="kV7nIaN6UhCzzZfUUubw-4">
          <mxGeometry relative="1" as="geometry">
            <mxPoint x="473.43463134765625" y="420.51544189453125" as="targetPoint" />
          </mxGeometry>
        </mxCell>
        <mxCell id="kV7nIaN6UhCzzZfUUubw-6" value="&lt;font style=&quot;font-size: 20px;&quot;&gt;R3&lt;/font&gt;" style="ellipse;whiteSpace=wrap;html=1;aspect=fixed;" vertex="1" parent="1">
          <mxGeometry x="253" y="403" width="65" height="65" as="geometry" />
        </mxCell>
        <mxCell id="kV7nIaN6UhCzzZfUUubw-39" style="rounded=0;orthogonalLoop=1;jettySize=auto;html=1;exitX=1;exitY=1;exitDx=0;exitDy=0;entryX=0;entryY=0.5;entryDx=0;entryDy=0;jumpStyle=arc;" edge="1" parent="1" source="kV7nIaN6UhCzzZfUUubw-7" target="kV7nIaN6UhCzzZfUUubw-4">
          <mxGeometry relative="1" as="geometry" />
        </mxCell>
        <mxCell id="kV7nIaN6UhCzzZfUUubw-7" value="&lt;font style=&quot;font-size: 20px;&quot;&gt;R2&lt;/font&gt;" style="ellipse;whiteSpace=wrap;html=1;aspect=fixed;" vertex="1" parent="1">
          <mxGeometry x="253" y="318" width="65" height="65" as="geometry" />
        </mxCell>
        <mxCell id="kV7nIaN6UhCzzZfUUubw-38" style="rounded=0;orthogonalLoop=1;jettySize=auto;html=1;exitX=1;exitY=1;exitDx=0;exitDy=0;entryX=0;entryY=0.5;entryDx=0;entryDy=0;jumpStyle=arc;" edge="1" parent="1" source="kV7nIaN6UhCzzZfUUubw-8" target="kV7nIaN6UhCzzZfUUubw-4">
          <mxGeometry relative="1" as="geometry">
            <mxPoint x="575.3423461914062" y="337.8077392578125" as="targetPoint" />
          </mxGeometry>
        </mxCell>
        <mxCell id="kV7nIaN6UhCzzZfUUubw-8" value="&lt;font style=&quot;font-size: 20px;&quot;&gt;R1&lt;/font&gt;" style="ellipse;whiteSpace=wrap;html=1;aspect=fixed;" vertex="1" parent="1">
          <mxGeometry x="253" y="232" width="65" height="65" as="geometry" />
        </mxCell>
        <mxCell id="kV7nIaN6UhCzzZfUUubw-33" style="rounded=0;orthogonalLoop=1;jettySize=auto;html=1;exitX=0;exitY=0.5;exitDx=0;exitDy=0;" edge="1" parent="1" source="kV7nIaN6UhCzzZfUUubw-9" target="kV7nIaN6UhCzzZfUUubw-5">
          <mxGeometry relative="1" as="geometry" />
        </mxCell>
        <mxCell id="kV7nIaN6UhCzzZfUUubw-34" style="rounded=0;orthogonalLoop=1;jettySize=auto;html=1;exitX=0;exitY=0.5;exitDx=0;exitDy=0;entryX=1;entryY=0.5;entryDx=0;entryDy=0;" edge="1" parent="1" source="kV7nIaN6UhCzzZfUUubw-9" target="kV7nIaN6UhCzzZfUUubw-8">
          <mxGeometry relative="1" as="geometry" />
        </mxCell>
        <mxCell id="kV7nIaN6UhCzzZfUUubw-35" style="rounded=0;orthogonalLoop=1;jettySize=auto;html=1;exitX=0;exitY=0.5;exitDx=0;exitDy=0;entryX=1;entryY=0.5;entryDx=0;entryDy=0;jumpStyle=arc;jumpSize=10;" edge="1" parent="1" source="kV7nIaN6UhCzzZfUUubw-9" target="kV7nIaN6UhCzzZfUUubw-6">
          <mxGeometry relative="1" as="geometry" />
        </mxCell>
        <mxCell id="kV7nIaN6UhCzzZfUUubw-9" value="&lt;font style=&quot;font-size: 20px;&quot;&gt;B&lt;/font&gt;" style="ellipse;whiteSpace=wrap;html=1;aspect=fixed;" vertex="1" parent="1">
          <mxGeometry x="374" y="147" width="65" height="65" as="geometry" />
        </mxCell>
        <mxCell id="kV7nIaN6UhCzzZfUUubw-30" style="rounded=0;orthogonalLoop=1;jettySize=auto;html=1;exitX=0;exitY=1;exitDx=0;exitDy=0;entryX=1;entryY=0.5;entryDx=0;entryDy=0;jumpStyle=arc;jumpSize=10;" edge="1" parent="1" source="kV7nIaN6UhCzzZfUUubw-10" target="kV7nIaN6UhCzzZfUUubw-7">
          <mxGeometry relative="1" as="geometry" />
        </mxCell>
        <mxCell id="kV7nIaN6UhCzzZfUUubw-31" style="rounded=0;orthogonalLoop=1;jettySize=auto;html=1;exitX=0;exitY=1;exitDx=0;exitDy=0;entryX=1;entryY=0.5;entryDx=0;entryDy=0;jumpStyle=arc;jumpSize=10;" edge="1" parent="1" source="kV7nIaN6UhCzzZfUUubw-10" target="kV7nIaN6UhCzzZfUUubw-6">
          <mxGeometry relative="1" as="geometry" />
        </mxCell>
        <mxCell id="kV7nIaN6UhCzzZfUUubw-10" value="&lt;font style=&quot;font-size: 20px;&quot;&gt;C&lt;/font&gt;" style="ellipse;whiteSpace=wrap;html=1;aspect=fixed;" vertex="1" parent="1">
          <mxGeometry x="485" y="147" width="65" height="65" as="geometry" />
        </mxCell>
        <mxCell id="kV7nIaN6UhCzzZfUUubw-36" style="rounded=0;orthogonalLoop=1;jettySize=auto;html=1;exitX=0.5;exitY=1;exitDx=0;exitDy=0;entryX=0;entryY=0.5;entryDx=0;entryDy=0;" edge="1" parent="1" source="kV7nIaN6UhCzzZfUUubw-11" target="kV7nIaN6UhCzzZfUUubw-6">
          <mxGeometry relative="1" as="geometry" />
        </mxCell>
        <mxCell id="kV7nIaN6UhCzzZfUUubw-11" value="&lt;font style=&quot;font-size: 20px;&quot;&gt;D&lt;/font&gt;" style="ellipse;whiteSpace=wrap;html=1;aspect=fixed;" vertex="1" parent="1">
          <mxGeometry x="33" y="147" width="65" height="65" as="geometry" />
        </mxCell>
        <mxCell id="kV7nIaN6UhCzzZfUUubw-41" value="12" style="text;html=1;strokeColor=none;fillColor=none;align=center;verticalAlign=middle;whiteSpace=wrap;rounded=0;fontColor=#3333FF;fontStyle=1" vertex="1" parent="1">
          <mxGeometry x="409" y="95" width="20" height="30" as="geometry" />
        </mxCell>
        <mxCell id="kV7nIaN6UhCzzZfUUubw-42" value="17" style="text;html=1;strokeColor=none;fillColor=none;align=center;verticalAlign=middle;whiteSpace=wrap;rounded=0;fontColor=#3333FF;fontStyle=1" vertex="1" parent="1">
          <mxGeometry x="303" y="103" width="20" height="30" as="geometry" />
        </mxCell>
        <mxCell id="kV7nIaN6UhCzzZfUUubw-43" value="25" style="text;html=1;strokeColor=none;fillColor=none;align=center;verticalAlign=middle;whiteSpace=wrap;rounded=0;fontColor=#3333FF;fontStyle=1" vertex="1" parent="1">
          <mxGeometry x="249" y="103" width="20" height="30" as="geometry" />
        </mxCell>
        <mxCell id="kV7nIaN6UhCzzZfUUubw-44" value="9" style="text;html=1;strokeColor=none;fillColor=none;align=center;verticalAlign=middle;whiteSpace=wrap;rounded=0;fontColor=#3333FF;fontStyle=1" vertex="1" parent="1">
          <mxGeometry x="131" y="99" width="20" height="30" as="geometry" />
        </mxCell>
        <mxCell id="kV7nIaN6UhCzzZfUUubw-45" value="9" style="text;html=1;strokeColor=none;fillColor=none;align=center;verticalAlign=middle;whiteSpace=wrap;rounded=0;fontColor=#3333FF;fontStyle=1" vertex="1" parent="1">
          <mxGeometry x="118" y="288" width="20" height="30" as="geometry" />
        </mxCell>
        <mxCell id="kV7nIaN6UhCzzZfUUubw-46" value="25" style="text;html=1;strokeColor=none;fillColor=none;align=center;verticalAlign=middle;whiteSpace=wrap;rounded=0;fontColor=#3333FF;fontStyle=1" vertex="1" parent="1">
          <mxGeometry x="214" y="153" width="20" height="30" as="geometry" />
        </mxCell>
        <mxCell id="kV7nIaN6UhCzzZfUUubw-47" value="25" style="text;html=1;strokeColor=none;fillColor=none;align=center;verticalAlign=middle;whiteSpace=wrap;rounded=0;fontColor=#3333FF;fontStyle=1" vertex="1" parent="1">
          <mxGeometry x="231" y="209" width="20" height="30" as="geometry" />
        </mxCell>
        <mxCell id="kV7nIaN6UhCzzZfUUubw-48" value="25" style="text;html=1;strokeColor=none;fillColor=none;align=center;verticalAlign=middle;whiteSpace=wrap;rounded=0;fontColor=#3333FF;fontStyle=1" vertex="1" parent="1">
          <mxGeometry x="240" y="288" width="20" height="30" as="geometry" />
        </mxCell>
        <mxCell id="kV7nIaN6UhCzzZfUUubw-49" value="25" style="text;html=1;strokeColor=none;fillColor=none;align=center;verticalAlign=middle;whiteSpace=wrap;rounded=0;fontColor=#3333FF;fontStyle=1" vertex="1" parent="1">
          <mxGeometry x="214" y="335.5" width="20" height="30" as="geometry" />
        </mxCell>
        <mxCell id="kV7nIaN6UhCzzZfUUubw-51" value="17" style="text;html=1;strokeColor=none;fillColor=none;align=center;verticalAlign=middle;whiteSpace=wrap;rounded=0;fontColor=#3333FF;fontStyle=1" vertex="1" parent="1">
          <mxGeometry x="339" y="153" width="20" height="30" as="geometry" />
        </mxCell>
        <mxCell id="kV7nIaN6UhCzzZfUUubw-52" value="17" style="text;html=1;strokeColor=none;fillColor=none;align=center;verticalAlign=middle;whiteSpace=wrap;rounded=0;fontColor=#3333FF;fontStyle=1" vertex="1" parent="1">
          <mxGeometry x="315" y="221" width="20" height="30" as="geometry" />
        </mxCell>
        <mxCell id="kV7nIaN6UhCzzZfUUubw-53" value="17" style="text;html=1;strokeColor=none;fillColor=none;align=center;verticalAlign=middle;whiteSpace=wrap;rounded=0;fontColor=#3333FF;fontStyle=1" vertex="1" parent="1">
          <mxGeometry x="303" y="382" width="20" height="30" as="geometry" />
        </mxCell>
        <mxCell id="kV7nIaN6UhCzzZfUUubw-56" value="12" style="text;html=1;strokeColor=none;fillColor=none;align=center;verticalAlign=middle;whiteSpace=wrap;rounded=0;fontColor=#3333FF;fontStyle=1" vertex="1" parent="1">
          <mxGeometry x="315" y="314" width="20" height="30" as="geometry" />
        </mxCell>
        <mxCell id="kV7nIaN6UhCzzZfUUubw-57" value="12" style="text;html=1;strokeColor=none;fillColor=none;align=center;verticalAlign=middle;whiteSpace=wrap;rounded=0;fontColor=#3333FF;fontStyle=1" vertex="1" parent="1">
          <mxGeometry x="339" y="397" width="20" height="30" as="geometry" />
        </mxCell>
        <mxCell id="kV7nIaN6UhCzzZfUUubw-59" value="9" style="text;html=1;strokeColor=none;fillColor=none;align=center;verticalAlign=middle;whiteSpace=wrap;rounded=0;fontColor=#00CC00;fontStyle=3" vertex="1" parent="1">
          <mxGeometry x="452" y="291" width="20" height="30" as="geometry" />
        </mxCell>
        <mxCell id="kV7nIaN6UhCzzZfUUubw-60" value="12" style="text;html=1;strokeColor=none;fillColor=none;align=center;verticalAlign=middle;whiteSpace=wrap;rounded=0;fontColor=#00CC00;fontStyle=3" vertex="1" parent="1">
          <mxGeometry x="432" y="331" width="20" height="30" as="geometry" />
        </mxCell>
        <mxCell id="kV7nIaN6UhCzzZfUUubw-61" value="10" style="text;html=1;strokeColor=none;fillColor=none;align=center;verticalAlign=middle;whiteSpace=wrap;rounded=0;fontColor=#00CC00;fontStyle=3" vertex="1" parent="1">
          <mxGeometry x="412" y="381" width="20" height="30" as="geometry" />
        </mxCell>
        <mxCell id="kV7nIaN6UhCzzZfUUubw-63" value="-1" style="text;html=1;strokeColor=none;fillColor=none;align=center;verticalAlign=middle;whiteSpace=wrap;rounded=0;fontColor=#FF0000;fontStyle=1" vertex="1" parent="1">
          <mxGeometry x="545" y="99" width="20" height="30" as="geometry" />
        </mxCell>
        <mxCell id="kV7nIaN6UhCzzZfUUubw-64" value="&lt;div style=&quot;text-align: center;&quot;&gt;&lt;span style=&quot;background-color: initial;&quot;&gt;&lt;b style=&quot;&quot;&gt;&lt;font color=&quot;#ff0000&quot;&gt;-1: Cost&lt;/font&gt;&lt;/b&gt;&lt;/span&gt;&lt;/div&gt;" style="text;whiteSpace=wrap;html=1;" vertex="1" parent="1">
          <mxGeometry x="618" y="183" width="159" height="25" as="geometry" />
        </mxCell>
      </root>
    </mxGraphModel>
  </diagram>
</mxfile>
